<svg width="190" height="77" viewBox="0 0 190 77" fill="none" xmlns="http://www.w3.org/2000/svg">
<path d="M4.00001 0.999968L4.00001 0.499968L3.50001 0.499968L3.50001 0.999968L4.00001 0.999968ZM3.64645 76.8535C3.84171 77.0488 4.15829 77.0488 4.35355 76.8535L7.53554 73.6716C7.73079 73.4763 7.73079 73.1597 7.53554 72.9645C7.34027 72.7692 7.0237 72.7692 6.82843 72.9645L4 75.7929L1.17157 72.9644C0.976303 72.7692 0.659729 72.7692 0.464463 72.9644C0.269211 73.1597 0.269211 73.4763 0.464463 73.6716L3.64645 76.8535ZM190 0.499985L4.00001 0.499968L4.00001 1.49997L190 1.49998L190 0.499985ZM3.50001 0.999968L3.5 76.5L4.5 76.5L4.50001 0.999969L3.50001 0.999968Z" fill="white"/>
</svg>
