<svg width="24" height="24" viewBox="0 0 24 24" fill="none" xmlns="http://www.w3.org/2000/svg">
<path d="M8.68917 11.6429C9.70917 13.6475 11.3525 15.2908 13.3571 16.3108L14.9154 14.7525C15.1137 14.5542 15.39 14.4975 15.6379 14.5754C16.4312 14.8375 17.2812 14.9792 18.1667 14.9792C18.3545 14.9792 18.5347 15.0538 18.6675 15.1866C18.8004 15.3195 18.875 15.4996 18.875 15.6875V18.1667C18.875 18.3545 18.8004 18.5347 18.6675 18.6675C18.5347 18.8004 18.3545 18.875 18.1667 18.875C14.973 18.875 11.9102 17.6063 9.65192 15.3481C7.39367 13.0898 6.125 10.027 6.125 6.83333C6.125 6.64547 6.19963 6.4653 6.33247 6.33247C6.4653 6.19963 6.64547 6.125 6.83333 6.125H9.3125C9.50036 6.125 9.68053 6.19963 9.81337 6.33247C9.94621 6.4653 10.0208 6.64547 10.0208 6.83333C10.0208 7.71875 10.1625 8.56875 10.4246 9.36208C10.5025 9.61 10.4458 9.88625 10.2475 10.0846L8.68917 11.6429Z" fill="black"/>
<circle cx="12" cy="12" r="11.75" stroke="black" stroke-width="0.5"/>
</svg>
