<svg width="429" height="239" viewBox="0 0 429 239" fill="none" xmlns="http://www.w3.org/2000/svg">
<g clip-path="url(#clip0_403_12)">
<path d="M200.169 39.3457V69.4448C197.469 66.4237 194.153 64.0179 190.444 62.3901C186.736 60.7623 182.721 59.9504 178.672 60.0094C174.598 60.0244 170.571 60.8778 166.841 62.5168C163.111 64.1558 159.757 66.5452 156.99 69.5364C154.222 72.5276 152.098 76.0567 150.751 79.9042C149.404 83.7517 148.863 87.8354 149.16 91.9012C148.852 95.9898 149.379 100.098 150.709 103.976C152.04 107.854 154.145 111.42 156.897 114.457C159.65 117.494 162.992 119.939 166.719 121.641C170.446 123.343 174.481 124.268 178.577 124.359C182.746 124.502 186.888 123.633 190.648 121.825C194.408 120.018 197.675 117.326 200.169 113.98V123.416H213.18V39.3457H200.169ZM181.312 112.848C178.655 112.768 176.043 112.146 173.635 111.021C171.228 109.895 169.075 108.289 167.31 106.301C165.544 104.313 164.203 101.986 163.368 99.4612C162.533 96.9363 162.222 94.2673 162.455 91.618C162.19 88.986 162.482 86.3278 163.31 83.8158C164.139 81.3038 165.486 78.9942 167.264 77.0368C169.042 75.0795 171.212 73.5181 173.632 72.454C176.052 71.3899 178.668 70.8468 181.312 70.8601C186.456 71.4588 191.201 73.9283 194.645 77.7989C198.089 81.6695 199.992 86.6714 199.992 91.854C199.992 97.0366 198.089 102.039 194.645 105.909C191.201 109.78 186.456 112.249 181.312 112.848Z" fill="#1D1D1B"/>
<path d="M282.857 91.4295C283.085 87.3749 282.461 83.3175 281.026 79.519C279.591 75.7205 277.376 72.2651 274.524 69.3758C271.673 66.4865 268.248 64.2275 264.47 62.7442C260.692 61.261 256.646 60.5865 252.591 60.7643C248.371 60.5644 244.157 61.265 240.228 62.8195C236.299 64.374 232.745 66.7469 229.803 69.7808C226.86 72.8147 224.597 76.4401 223.161 80.4165C221.726 84.393 221.152 88.6294 221.477 92.8448C221.184 97.0616 221.78 101.293 223.224 105.265C224.669 109.237 226.931 112.861 229.864 115.903C232.797 118.945 236.336 121.337 240.251 122.923C244.166 124.51 248.37 125.256 252.591 125.114C258.795 125.418 264.926 123.67 270.038 120.14C275.15 116.61 278.959 111.494 280.877 105.583H267.017C265.729 108.347 263.634 110.656 261.008 112.206C258.383 113.756 255.35 114.473 252.309 114.263C250.059 114.352 247.815 113.994 245.705 113.21C243.594 112.427 241.659 111.234 240.012 109.699C238.364 108.164 237.036 106.318 236.105 104.268C235.173 102.217 234.656 100.003 234.583 97.7513H281.726C282.289 95.6816 282.667 93.5661 282.857 91.4295ZM234.96 87.2779C235.272 82.9817 237.213 78.9671 240.385 76.0556C243.558 73.1441 247.722 71.5555 252.026 71.615C254.209 71.4482 256.404 71.7258 258.478 72.4309C260.551 73.136 262.46 74.2542 264.09 75.7178C265.72 77.1815 267.037 78.9603 267.962 80.9471C268.886 82.9339 269.399 85.0875 269.469 87.2779H234.96Z" fill="#1D1D1B"/>
<path d="M295.02 39.3457V123.038H307.937V39.3457H295.02Z" fill="#1D1D1B"/>
<path d="M355.74 71.9926V61.4248H340.56V45.9507H327.549V61.4248H320.194V71.9926H327.549V106.526C327.549 119.17 334.526 123.793 345.557 123.793H355.74V113.037H347.82C342.351 113.037 340.56 111.15 340.56 106.526V71.9926H355.74Z" fill="#1D1D1B"/>
<path d="M415.14 60.953V70.3885C412.58 67.1409 409.29 64.5431 405.539 62.8054C401.788 61.0677 397.68 60.2391 393.549 60.3869C389.487 60.4139 385.474 61.2771 381.76 62.9227C378.046 64.5684 374.709 66.9614 371.958 69.9528C369.208 72.9442 367.102 76.4701 365.772 80.311C364.442 84.1519 363.916 88.2257 364.226 92.2788C363.905 96.347 364.413 100.438 365.721 104.303C367.029 108.169 369.109 111.727 371.834 114.763C374.559 117.799 377.873 120.249 381.573 121.963C385.274 123.678 389.284 124.622 393.36 124.737C397.542 124.851 401.692 123.98 405.476 122.193C409.259 120.407 412.57 117.755 415.14 114.452V123.888H428.152V61.5193L415.14 60.953ZM396.283 113.131C393.627 113.051 391.015 112.43 388.607 111.304C386.199 110.178 384.047 108.572 382.281 106.584C380.516 104.597 379.174 102.269 378.339 99.7444C377.504 97.2196 377.194 94.5507 377.426 91.9015C377.162 89.2694 377.453 86.6111 378.282 84.0991C379.11 81.5871 380.458 79.2775 382.236 77.3201C384.014 75.3627 386.183 73.8014 388.603 72.7373C391.023 71.6732 393.64 71.1301 396.283 71.1433C401.427 71.7421 406.172 74.2116 409.616 78.0822C413.06 81.9527 414.963 86.9547 414.963 92.1373C414.963 97.3199 413.06 102.322 409.616 106.192C406.172 110.063 401.427 112.532 396.283 113.131Z" fill="#1D1D1B"/>
<path d="M55.0625 145.872V155.307C52.502 152.06 49.2127 149.462 45.4613 147.724C41.71 145.987 37.6024 145.158 33.4713 145.306C29.4013 145.32 25.378 146.174 21.6525 147.814C17.927 149.454 14.5794 151.845 11.8188 154.838C9.05821 157.83 6.94397 161.361 5.60799 165.208C4.27201 169.055 3.7431 173.137 4.05421 177.198C3.73273 181.274 4.24428 185.372 5.55792 189.244C6.87157 193.115 8.9597 196.678 11.6948 199.716C14.4299 202.753 17.7545 205.201 21.466 206.91C25.1776 208.619 29.1982 209.553 33.2826 209.656C37.4622 209.755 41.6075 208.877 45.3885 207.092C49.1695 205.306 52.4819 202.663 55.0625 199.371V208.807H68.1684V146.438L55.0625 145.872ZM36.2054 198.05C33.5491 197.97 30.9371 197.349 28.5294 196.223C26.1217 195.097 23.9691 193.491 22.2035 191.503C20.438 189.516 19.0967 187.188 18.2618 184.663C17.4269 182.139 17.116 179.47 17.3482 176.82C17.0839 174.188 17.3754 171.53 18.204 169.018C19.0325 166.506 20.3796 164.196 22.1578 162.239C23.9359 160.282 26.1053 158.72 28.5254 157.656C30.9455 156.592 33.562 156.049 36.2054 156.062C41.3495 156.661 46.0946 159.131 49.5386 163.001C52.9825 166.872 54.8856 171.874 54.8856 177.056C54.8856 182.239 52.9825 187.241 49.5386 191.111C46.0946 194.982 41.3495 197.451 36.2054 198.05Z" fill="#1D1D1B"/>
<path d="M131.812 145.872V155.308C129.241 152.072 125.95 149.482 122.201 147.745C118.452 146.009 114.349 145.173 110.22 145.306C106.15 145.32 102.127 146.174 98.4012 147.814C94.6758 149.454 91.3284 151.845 88.5678 154.838C85.8072 157.831 83.6927 161.361 82.3567 165.208C81.0207 169.055 80.4918 173.137 80.8029 177.198C80.4946 181.287 81.0219 185.395 82.3521 189.273C83.6824 193.151 85.7877 196.717 88.5402 199.754C91.2927 202.791 94.6345 205.236 98.3618 206.938C102.089 208.64 106.124 209.565 110.22 209.656C114.377 209.722 118.493 208.819 122.24 207.017C125.988 205.216 129.265 202.566 131.812 199.277V209.184C132.151 211.62 131.946 214.102 131.21 216.449C130.475 218.796 129.228 220.95 127.558 222.756C125.889 224.562 123.84 225.974 121.559 226.89C119.278 227.807 116.822 228.205 114.369 228.055C110.64 228.404 106.898 227.535 103.703 225.579C100.508 223.623 98.0311 220.685 96.6429 217.204H83.8201C85.423 230.98 97.7743 239.189 114.369 239.189C118.383 239.504 122.419 238.957 126.206 237.585C129.992 236.213 133.443 234.048 136.326 231.234C139.209 228.42 141.458 225.023 142.924 221.269C144.389 217.515 145.037 213.492 144.823 209.467V146.061L131.812 145.872ZM112.954 198.05C110.302 197.957 107.697 197.327 105.296 196.196C102.894 195.066 100.747 193.46 98.9842 191.475C97.2212 189.491 95.8793 187.168 95.0393 184.649C94.1993 182.13 93.8787 179.467 94.0973 176.821C94.5502 173.224 96.0288 169.834 98.3563 167.056C100.684 164.277 103.762 162.229 107.222 161.156C110.682 160.082 114.378 160.029 117.868 161.002C121.358 161.975 124.494 163.933 126.9 166.643C129.307 169.353 130.883 172.698 131.44 176.281C131.996 179.863 131.51 183.53 130.039 186.843C128.568 190.156 126.174 192.975 123.144 194.962C120.115 196.95 116.577 198.022 112.954 198.05Z" fill="#1D1D1B"/>
<path d="M219.026 175.594C219.254 171.531 218.628 167.465 217.187 163.66C215.746 159.855 213.523 156.395 210.661 153.504C207.799 150.613 204.362 148.356 200.573 146.879C196.784 145.402 192.727 144.737 188.665 144.929C184.453 144.743 180.249 145.453 176.332 147.014C172.414 148.575 168.872 150.95 165.94 153.982C163.008 157.014 160.753 160.635 159.323 164.605C157.893 168.574 157.321 172.802 157.645 177.009C157.354 181.218 157.947 185.441 159.386 189.406C160.825 193.372 163.078 196.991 166.001 200.032C168.924 203.072 172.45 205.465 176.354 207.058C180.258 208.651 184.452 209.407 188.665 209.278C194.869 209.582 201 207.834 206.112 204.304C211.224 200.774 215.033 195.659 216.951 189.747H202.997C201.709 192.512 199.614 194.821 196.988 196.37C194.362 197.92 191.329 198.637 188.288 198.428C183.752 198.581 179.34 196.929 176.018 193.834C172.696 190.74 170.734 186.454 170.563 181.916H218.177C218.645 179.837 218.928 177.722 219.026 175.594ZM170.94 171.442C171.274 167.154 173.221 163.153 176.389 160.246C179.556 157.339 183.708 155.742 188.005 155.779C190.192 155.599 192.392 155.867 194.471 156.567C196.551 157.267 198.466 158.384 200.099 159.851C201.732 161.317 203.048 163.101 203.968 165.094C204.888 167.087 205.392 169.248 205.448 171.442H170.94Z" fill="#1D1D1B"/>
<path d="M263.057 144.928C259.511 144.811 255.983 145.477 252.724 146.88C249.464 148.282 246.554 150.387 244.2 153.043V145.872H231.377V208.24H244.2V173.424C243.878 171.206 244.049 168.945 244.703 166.801C245.357 164.658 246.476 162.686 247.981 161.027C249.486 159.367 251.339 158.062 253.408 157.203C255.476 156.345 257.709 155.955 259.946 156.062C269.374 156.062 275.597 162.007 275.597 173.424V208.24H288.325V171.442C288.653 167.983 288.235 164.494 287.098 161.212C285.962 157.929 284.134 154.929 281.738 152.415C279.341 149.9 276.433 147.931 273.21 146.639C269.988 145.348 266.525 144.764 263.057 144.928Z" fill="#1D1D1B"/>
<path d="M331.32 198.427C320.854 198.427 313.972 190.69 313.972 177.009C313.972 163.327 320.854 155.779 331.32 155.779C334.478 155.52 337.634 156.302 340.307 158.005C342.98 159.709 345.022 162.241 346.123 165.215H360.454C358.969 158.965 355.304 153.45 350.12 149.662C344.935 145.875 338.57 144.062 332.169 144.551C323.642 144.551 315.464 147.941 309.434 153.975C303.405 160.009 300.018 168.193 300.018 176.726C300.018 185.259 303.405 193.443 309.434 199.477C315.464 205.511 323.642 208.901 332.169 208.901C338.517 209.136 344.76 207.225 349.892 203.476C355.023 199.728 358.743 194.36 360.454 188.237H346.595C345.659 191.466 343.613 194.26 340.818 196.125C338.022 197.99 334.658 198.805 331.32 198.427Z" fill="#1D1D1B"/>
<path d="M415.705 145.872L397.508 193.049L379.971 145.872H365.545L390.154 207.203L377.426 237.49H390.814L428.528 145.778L415.705 145.872Z" fill="#1D1D1B"/>
<path d="M137.563 13.3983V111.999C137.563 115.527 136.162 118.911 133.669 121.406C131.176 123.901 127.795 125.303 124.269 125.303H112.577C112.874 124.855 113.038 124.331 113.049 123.793V38.874C113.082 38.3197 112.962 37.767 112.702 37.2765C112.442 36.786 112.051 36.3769 111.574 36.094C111.096 35.8112 110.55 35.6656 109.995 35.6733C109.44 35.6811 108.898 35.8418 108.429 36.1378L27.0602 87.0892C26.6347 87.3662 26.2833 87.7431 26.0368 88.1871C25.7902 88.6312 25.6559 89.1289 25.6457 89.6368L24.7972 125.586H13.3887C11.6349 125.598 9.89599 125.263 8.27216 124.6C6.64832 123.937 5.17182 122.959 3.92732 121.723C2.68283 120.486 1.69488 119.015 1.02089 117.395C0.346903 115.775 -4.41036e-05 114.037 4.20508e-09 112.282V13.3983C4.20455e-09 9.84486 1.41073 6.43696 3.92157 3.92429C6.43241 1.41161 9.83783 0 13.3887 0H124.74C128.192 0.146091 131.454 1.62192 133.844 4.11894C136.233 6.61596 137.566 9.94081 137.563 13.3983Z" fill="#1D1D1B"/>
</g>
<defs>
<clipPath id="clip0_403_12">
<rect width="429" height="239" fill="white"/>
</clipPath>
</defs>
</svg>
