<svg width="120" height="67" viewBox="0 0 120 67" fill="none" xmlns="http://www.w3.org/2000/svg">
<g clip-path="url(#clip0_412_12)">
<path d="M55.9912 11.03V19.4678C55.2361 18.6209 54.3085 17.9465 53.2711 17.4902C52.2337 17.0338 51.1107 16.8062 49.978 16.8227C48.8385 16.827 47.7121 17.0662 46.6687 17.5257C45.6253 17.9851 44.6874 18.655 43.9131 19.4935C43.1389 20.332 42.5448 21.3214 42.1681 22.4C41.7913 23.4785 41.6399 24.6233 41.7231 25.7631C41.6368 26.9093 41.7843 28.061 42.1564 29.1482C42.5285 30.2353 43.1174 31.235 43.8873 32.0864C44.6573 32.9378 45.592 33.623 46.6347 34.1003C47.6773 34.5775 48.8059 34.8367 49.9516 34.8622C51.1178 34.9023 52.2763 34.6585 53.328 34.1519C54.3798 33.6452 55.2935 32.8906 55.9912 31.9526V34.5977H59.6308V11.03H55.9912ZM50.7165 31.6352C49.9735 31.6128 49.2428 31.4386 48.5693 31.123C47.8958 30.8074 47.2938 30.3572 46.7999 29.8C46.306 29.2427 45.9308 28.5902 45.6972 27.8825C45.4637 27.1747 45.3768 26.4264 45.4418 25.6838C45.3678 24.9459 45.4494 24.2007 45.6811 23.4965C45.9129 22.7923 46.2897 22.1449 46.7871 21.5961C47.2845 21.0474 47.8913 20.6097 48.5682 20.3114C49.2452 20.0131 49.9771 19.8609 50.7165 19.8646C52.1554 20.0324 53.4827 20.7247 54.4461 21.8098C55.4094 22.8948 55.9416 24.297 55.9416 25.7499C55.9416 27.2028 55.4094 28.605 54.4461 29.6901C53.4827 30.7751 52.1554 31.4673 50.7165 31.6352Z" fill="white"/>
<path d="M79.1208 25.6309C79.1846 24.4942 79.0101 23.3568 78.6086 22.2919C78.2072 21.2271 77.5876 20.2584 76.79 19.4484C75.9923 18.6385 75.0342 18.0052 73.9776 17.5894C72.9209 17.1736 71.789 16.9845 70.6549 17.0343C69.4745 16.9783 68.2956 17.1747 67.1966 17.6105C66.0976 18.0463 65.1036 18.7115 64.2805 19.562C63.4574 20.4125 62.8242 21.4288 62.4227 22.5435C62.0211 23.6583 61.8606 24.8459 61.9517 26.0276C61.8698 27.2097 62.0363 28.396 62.4404 29.5095C62.8445 30.623 63.4773 31.6389 64.2977 32.4917C65.1181 33.3444 66.1079 34.0149 67.203 34.4597C68.2981 34.9045 69.4741 35.1137 70.6549 35.0738C72.3902 35.159 74.1052 34.6689 75.5351 33.6794C76.9651 32.6898 78.0305 31.2557 78.567 29.5985H74.6901C74.3297 30.3735 73.7437 31.0209 73.0093 31.4553C72.2749 31.8897 71.4264 32.0907 70.5758 32.032C69.9467 32.0567 69.3189 31.9564 68.7286 31.7368C68.1383 31.5172 67.597 31.1826 67.1362 30.7524C66.6753 30.3221 66.3039 29.8047 66.0432 29.2299C65.7826 28.6551 65.6379 28.0342 65.6176 27.4031H78.8044C78.9618 26.8229 79.0677 26.2298 79.1208 25.6309ZM65.7231 24.467C65.8104 23.2626 66.3533 22.1372 67.2406 21.321C68.128 20.5048 69.2928 20.0595 70.4967 20.0762C71.1075 20.0294 71.7214 20.1072 72.3014 20.3049C72.8814 20.5026 73.4155 20.816 73.8714 21.2263C74.3273 21.6366 74.6957 22.1353 74.9542 22.6923C75.2128 23.2492 75.3562 23.853 75.3758 24.467H65.7231Z" fill="white"/>
<path d="M82.5231 11.03V34.4919H86.1362V11.03H82.5231Z" fill="white"/>
<path d="M99.5077 20.182V17.2195H95.2616V12.8816H91.622V17.2195H89.5648V20.182H91.622V29.863C91.622 33.4074 93.5736 34.7035 96.6593 34.7035H99.5077V31.6881H97.2922C95.7626 31.6881 95.2616 31.1591 95.2616 29.863V20.182H99.5077Z" fill="white"/>
<path d="M116.123 17.0872V19.7323C115.407 18.8219 114.487 18.0936 113.437 17.6065C112.388 17.1194 111.239 16.8871 110.084 16.9285C108.947 16.9361 107.825 17.1781 106.786 17.6394C105.747 18.1007 104.814 18.7716 104.044 19.6102C103.275 20.4488 102.686 21.4372 102.314 22.5139C101.942 23.5907 101.795 24.7327 101.881 25.8689C101.792 27.0094 101.934 28.1562 102.3 29.2398C102.666 30.3234 103.247 31.321 104.01 32.1721C104.772 33.0232 105.699 33.7099 106.734 34.1906C107.769 34.6712 108.891 34.9357 110.031 34.968C111.201 35.0001 112.361 34.7558 113.42 34.255C114.478 33.7542 115.404 33.0108 116.123 32.0849V34.73H119.763V17.246L116.123 17.0872ZM110.848 31.7146C110.105 31.6922 109.375 31.5179 108.701 31.2023C108.028 30.8867 107.426 30.4365 106.932 29.8793C106.438 29.3221 106.063 28.6696 105.829 27.9618C105.596 27.254 105.509 26.5058 105.574 25.7631C105.5 25.0253 105.581 24.2801 105.813 23.5759C106.045 22.8717 106.422 22.2242 106.919 21.6755C107.416 21.1268 108.023 20.6891 108.7 20.3908C109.377 20.0924 110.109 19.9402 110.848 19.9439C112.287 20.1118 113.615 20.804 114.578 21.8891C115.541 22.9742 116.074 24.3764 116.074 25.8292C116.074 27.2821 115.541 28.6843 114.578 29.7694C113.615 30.8544 112.287 31.5467 110.848 31.7146Z" fill="white"/>
<path d="M15.4022 40.893V43.5381C14.6859 42.6277 13.7658 41.8994 12.7165 41.4123C11.6672 40.9251 10.5182 40.6928 9.36267 40.7343C8.22422 40.7382 7.0988 40.9776 6.05671 41.4373C5.01461 41.897 4.07821 42.5673 3.30602 43.4063C2.53383 44.2453 1.94243 45.235 1.56873 46.3135C1.19503 47.392 1.04708 48.5362 1.13411 49.6747C1.04418 50.8173 1.18727 51.9663 1.55473 53.0516C1.92218 54.1369 2.50627 55.1358 3.27133 55.9872C4.03639 56.8387 4.96635 57.5249 6.00455 58.004C7.04276 58.4831 8.1674 58.745 9.30987 58.7738C10.479 58.8017 11.6385 58.5556 12.6961 58.055C13.7538 57.5545 14.6803 56.8134 15.4022 55.8907V58.5357H19.0681V41.0517L15.4022 40.893ZM10.1274 55.5203C9.38441 55.498 8.6538 55.3237 7.98032 55.0081C7.30684 54.6925 6.7047 54.2423 6.21084 53.6851C5.71697 53.1278 5.34179 52.4754 5.10826 51.7676C4.87473 51.0598 4.78774 50.3116 4.85272 49.5689C4.77877 48.8311 4.86032 48.0858 5.09208 47.3816C5.32384 46.6774 5.70066 46.03 6.19804 45.4812C6.69542 44.9325 7.30225 44.4948 7.97919 44.1965C8.65614 43.8982 9.38805 43.746 10.1274 43.7497C11.5664 43.9175 12.8937 44.6098 13.857 45.6949C14.8203 46.7799 15.3527 48.1821 15.3527 49.635C15.3527 51.0879 14.8203 52.4901 13.857 53.5752C12.8937 54.6602 11.5664 55.3525 10.1274 55.5203Z" fill="white"/>
<path d="M36.8703 40.893V43.5381C36.1513 42.6309 35.2307 41.9049 34.182 41.4181C33.1334 40.9312 31.9857 40.6971 30.8307 40.7343C29.6923 40.7382 28.5669 40.9776 27.5248 41.4373C26.4827 41.897 25.5464 42.5674 24.7742 43.4063C24.002 44.2453 23.4105 45.235 23.0368 46.3135C22.6631 47.392 22.5152 48.5362 22.6022 49.6747C22.516 50.8209 22.6634 51.9726 23.0355 53.0598C23.4076 54.1469 23.9965 55.1466 24.7665 55.998C25.5364 56.8494 26.4712 57.5346 27.5138 58.0118C28.5564 58.4891 29.685 58.7483 30.8307 58.7738C31.9936 58.7924 33.1448 58.5391 34.193 58.0341C35.2413 57.529 36.158 56.7861 36.8703 55.8642V58.6415C36.9654 59.3245 36.9079 60.0201 36.7022 60.6781C36.4964 61.336 36.1475 61.9399 35.6807 62.4461C35.2138 62.9524 34.6406 63.3482 34.0025 63.6051C33.3645 63.862 32.6775 63.9736 31.9912 63.9317C30.9481 64.0294 29.9015 63.7859 29.0078 63.2376C28.1141 62.6893 27.4213 61.8657 27.0329 60.8899H23.4462C23.8945 64.7517 27.3494 67.0529 31.9912 67.0529C33.1142 67.1411 34.2431 66.9878 35.3023 66.6032C36.3615 66.2186 37.3266 65.6117 38.1331 64.8229C38.9395 64.0341 39.5687 63.0817 39.9786 62.0293C40.3885 60.977 40.5697 59.8491 40.5099 58.7209V40.9459L36.8703 40.893ZM31.5956 55.5204C30.8538 55.4943 30.125 55.3174 29.4533 55.0006C28.7816 54.6838 28.181 54.2335 27.6879 53.6771C27.1947 53.1207 26.8194 52.4697 26.5844 51.7636C26.3494 51.0574 26.2598 50.3108 26.3209 49.5689C26.4476 48.5606 26.8612 47.6102 27.5122 46.8314C28.1633 46.0526 29.0243 45.4784 29.9922 45.1775C30.9601 44.8765 31.9939 44.8615 32.9701 45.1343C33.9462 45.4071 34.8234 45.9561 35.4966 46.7157C36.1698 47.4753 36.6107 48.4133 36.7663 49.4176C36.922 50.4218 36.7859 51.4498 36.3745 52.3785C35.963 53.3073 35.2934 54.0975 34.4459 54.6547C33.5984 55.2118 32.6089 55.5124 31.5956 55.5204Z" fill="white"/>
<path d="M61.2659 49.2251C61.33 48.0861 61.1547 46.9463 60.7517 45.8796C60.3486 44.8128 59.7267 43.8428 58.9262 43.0324C58.1256 42.222 57.1643 41.5893 56.1044 41.1752C55.0446 40.7611 53.9098 40.5749 52.7736 40.6285C51.5953 40.5764 50.4194 40.7756 49.3236 41.2131C48.2278 41.6506 47.2371 42.3164 46.4169 43.1665C45.5967 44.0166 44.9658 45.0316 44.5658 46.1444C44.1658 47.2572 44.0059 48.4424 44.0967 49.6218C44.015 50.8016 44.1809 51.9855 44.5834 53.0971C44.986 54.2088 45.6164 55.2235 46.4339 56.0758C47.2514 56.9281 48.2379 57.5991 49.3298 58.0456C50.4218 58.4921 51.5949 58.7041 52.7736 58.668C54.5089 58.7531 56.2238 58.2631 57.6538 57.2736C59.0837 56.284 60.1492 54.8499 60.6857 53.1927H56.7824C56.422 53.9677 55.836 54.615 55.1016 55.0494C54.3671 55.4838 53.5187 55.6849 52.6681 55.6262C51.3993 55.669 50.1652 55.2061 49.2359 54.3385C48.3067 53.471 47.7579 52.2696 47.7098 50.9973H61.0286C61.1593 50.4146 61.2388 49.8216 61.2659 49.2251ZM47.8153 48.0612C47.9088 46.8591 48.4535 45.7374 49.3395 44.9224C50.2255 44.1075 51.3868 43.66 52.589 43.6704C53.2006 43.6198 53.816 43.6949 54.3976 43.8911C54.9793 44.0874 55.515 44.4006 55.9717 44.8116C56.4285 45.2227 56.7967 45.7229 57.054 46.2817C57.3113 46.8404 57.4522 47.4459 57.4681 48.0612H47.8153Z" fill="white"/>
<path d="M73.5825 40.6285C72.5906 40.5956 71.6037 40.7824 70.692 41.1755C69.7803 41.5687 68.9662 42.1586 68.3077 42.9033V40.893H64.7209V58.377H68.3077V48.6167C68.2175 47.995 68.2656 47.361 68.4484 46.7602C68.6313 46.1594 68.9444 45.6066 69.3654 45.1414C69.7864 44.6762 70.3047 44.3102 70.8833 44.0696C71.4619 43.829 72.0864 43.7197 72.7121 43.7497C75.3494 43.7497 77.0901 45.4161 77.0901 48.6167V58.377H80.6505V48.0612C80.7423 47.0916 80.6252 46.1135 80.3073 45.1932C79.9894 44.273 79.478 43.4319 78.8078 42.7271C78.1375 42.0223 77.3241 41.4702 76.4226 41.1081C75.521 40.746 74.5525 40.5825 73.5825 40.6285Z" fill="white"/>
<path d="M92.6769 55.6261C89.7494 55.6261 87.8242 53.4571 87.8242 49.6218C87.8242 45.7864 89.7494 43.6703 92.6769 43.6703C93.5603 43.5977 94.4431 43.8168 95.1908 44.2944C95.9384 44.772 96.5097 45.4818 96.8175 46.3154H100.826C100.411 44.5634 99.3858 43.0174 97.9355 41.9556C96.4852 40.8938 94.7047 40.3856 92.9143 40.5227C90.5291 40.5227 88.2415 41.473 86.5549 43.1645C84.8683 44.8561 83.921 47.1502 83.921 49.5424C83.921 51.9346 84.8683 54.2288 86.5549 55.9203C88.2415 57.6119 90.5291 58.5622 92.9143 58.5622C94.6901 58.628 96.4364 58.0924 97.8717 57.0415C99.307 55.9907 100.348 54.4858 100.826 52.7694H96.9495C96.6879 53.6746 96.1154 54.4579 95.3335 54.9806C94.5517 55.5034 93.6106 55.732 92.6769 55.6261Z" fill="white"/>
<path d="M116.281 40.893L111.191 54.1184L106.286 40.893H102.25L109.134 58.086L105.574 66.5768H109.319L119.868 40.8666L116.281 40.893Z" fill="white"/>
<path d="M38.4791 3.75602V31.3971C38.4791 32.3863 38.0873 33.3349 37.39 34.0344C36.6926 34.7338 35.7467 35.1267 34.7605 35.1267H31.4901C31.5733 35.0011 31.6191 34.8543 31.622 34.7035V10.8977C31.6314 10.7423 31.5977 10.5874 31.525 10.4499C31.4522 10.3124 31.343 10.1977 31.2094 10.1184C31.0759 10.0391 30.923 9.99831 30.7678 10.0005C30.6126 10.0026 30.461 10.0477 30.3297 10.1307L7.56928 24.4141C7.45026 24.4918 7.35195 24.5974 7.28299 24.7219C7.21404 24.8464 7.17647 24.9859 7.17361 25.1283L6.93626 35.2061H3.74508C3.25452 35.2096 2.76809 35.1157 2.31387 34.9298C1.85965 34.7439 1.44665 34.4698 1.09854 34.1231C0.750427 33.7764 0.474077 33.3641 0.285549 32.9099C0.0970205 32.4556 -2.75955e-05 31.9685 -1.52576e-05 31.4765V3.75602C-1.52576e-05 2.75986 0.394593 1.80451 1.09693 1.10012C1.79926 0.395725 2.75182 1.78814e-06 3.74508 1.78814e-06H34.8923C35.8579 0.0409561 36.7703 0.454683 37.4387 1.15468C38.1072 1.85468 38.48 2.78676 38.4791 3.75602Z" fill="white"/>
</g>
<defs>
<clipPath id="clip0_412_12">
<rect width="120" height="67" fill="white"/>
</clipPath>
</defs>
</svg>
