<svg width="20" height="17" viewBox="0 0 20 17" fill="none" xmlns="http://www.w3.org/2000/svg">
<path d="M2 16.9821C1.45 16.9821 0.979333 16.7865 0.588 16.3951C0.196 16.0031 0 15.5321 0 14.9821V2.98215C0 2.43215 0.196 1.96148 0.588 1.57015C0.979333 1.17815 1.45 0.982147 2 0.982147H18C18.55 0.982147 19.021 1.17815 19.413 1.57015C19.8043 1.96148 20 2.43215 20 2.98215V14.9821C20 15.5321 19.8043 16.0031 19.413 16.3951C19.021 16.7865 18.55 16.9821 18 16.9821H2ZM18 4.98215L10.525 9.65715C10.4417 9.70715 10.354 9.74448 10.262 9.76915C10.1707 9.79448 10.0833 9.80715 10 9.80715C9.91667 9.80715 9.82933 9.79448 9.738 9.76915C9.646 9.74448 9.55833 9.70715 9.475 9.65715L2 4.98215V14.9821H18V4.98215ZM10 7.98215L18 2.98215H2L10 7.98215ZM2 5.23215V3.75715V3.78215V3.76915V5.23215Z" fill="white"/>
</svg>
