<svg width="43" height="43" viewBox="0 0 43 43" fill="none" xmlns="http://www.w3.org/2000/svg">
<path d="M15.8441 20.89C17.5866 24.3145 20.3939 27.1219 23.8184 28.8644L26.4806 26.2022C26.8194 25.8634 27.2913 25.7666 27.7149 25.8997C29.0701 26.3474 30.5222 26.5894 32.0348 26.5894C32.3557 26.5894 32.6635 26.7169 32.8905 26.9439C33.1174 27.1708 33.2449 27.4786 33.2449 27.7995V32.0347C33.2449 32.3557 33.1174 32.6635 32.8905 32.8904C32.6635 33.1173 32.3557 33.2448 32.0348 33.2448C26.579 33.2448 21.3466 31.0775 17.4888 27.2197C13.6309 23.3618 11.4636 18.1294 11.4636 12.6736C11.4636 12.3527 11.5911 12.0449 11.818 11.818C12.045 11.5911 12.3528 11.4636 12.6737 11.4636H16.9089C17.2299 11.4636 17.5377 11.5911 17.7646 11.818C17.9915 12.0449 18.119 12.3527 18.119 12.6736C18.119 14.1862 18.361 15.6383 18.8087 16.9936C18.9419 17.4171 18.845 17.889 18.5062 18.2279L15.8441 20.89Z" fill="white"/>
<circle cx="21.5" cy="21.5" r="21" stroke="white"/>
</svg>
