<svg width="41" height="41" viewBox="0 0 41 41" fill="none" xmlns="http://www.w3.org/2000/svg">
<circle cx="20.5" cy="20.5" r="20.5" fill="#F79229"/>
<path d="M14.8441 19.89C16.5866 23.3145 19.3939 26.1219 22.8184 27.8644L25.4806 25.2022C25.8194 24.8634 26.2913 24.7666 26.7149 24.8997C28.0701 25.3474 29.5222 25.5894 31.0348 25.5894C31.3557 25.5894 31.6635 25.7169 31.8905 25.9439C32.1174 26.1708 32.2449 26.4786 32.2449 26.7995V31.0347C32.2449 31.3557 32.1174 31.6635 31.8905 31.8904C31.6635 32.1173 31.3557 32.2448 31.0348 32.2448C25.579 32.2448 20.3466 30.0775 16.4888 26.2197C12.6309 22.3618 10.4636 17.1294 10.4636 11.6736C10.4636 11.3527 10.5911 11.0449 10.818 10.818C11.045 10.5911 11.3528 10.4636 11.6737 10.4636H15.9089C16.2299 10.4636 16.5377 10.5911 16.7646 10.818C16.9915 11.0449 17.119 11.3527 17.119 11.6736C17.119 13.1862 17.361 14.6383 17.8087 15.9936C17.9419 16.4171 17.845 16.889 17.5062 17.2279L14.8441 19.89Z" fill="white"/>
</svg>
