<svg width="24" height="24" viewBox="0 0 24 24" fill="none" xmlns="http://www.w3.org/2000/svg">
<ellipse cx="12" cy="11.7857" rx="12" ry="11.7857" fill="#F79229"/>
<path d="M8.68926 11.4351C9.70926 13.4038 11.3526 15.0178 13.3572 16.0196L14.9155 14.4891C15.1138 14.2943 15.3901 14.2387 15.638 14.3152C16.4313 14.5726 17.2813 14.7117 18.1668 14.7117C18.3546 14.7117 18.5348 14.785 18.6676 14.9155C18.8005 15.046 18.8751 15.2229 18.8751 15.4074V17.8423C18.8751 18.0268 18.8005 18.2038 18.6676 18.3342C18.5348 18.4647 18.3546 18.538 18.1668 18.538C14.9731 18.538 11.9103 17.292 9.65201 15.0741C7.39376 12.8561 6.12509 9.84798 6.12509 6.71136C6.12509 6.52685 6.19972 6.3499 6.33256 6.21943C6.4654 6.08897 6.64556 6.01567 6.83342 6.01567H9.31259C9.50045 6.01567 9.68062 6.08897 9.81346 6.21943C9.9463 6.3499 10.0209 6.52685 10.0209 6.71136C10.0209 7.58096 10.1626 8.41579 10.4247 9.19495C10.5026 9.43844 10.4459 9.70976 10.2476 9.90455L8.68926 11.4351Z" fill="white"/>
</svg>
