<svg width="12" height="12" viewBox="0 0 12 12" fill="none" xmlns="http://www.w3.org/2000/svg">
<path d="M2.86167 5.29417C3.70167 6.945 5.055 8.29833 6.70583 9.13833L7.98917 7.855C8.1525 7.69167 8.38 7.645 8.58417 7.70917C9.2375 7.925 9.9375 8.04167 10.6667 8.04167C10.8214 8.04167 10.9697 8.10312 11.0791 8.21252C11.1885 8.32192 11.25 8.47029 11.25 8.625V10.6667C11.25 10.8214 11.1885 10.9697 11.0791 11.0791C10.9697 11.1885 10.8214 11.25 10.6667 11.25C8.0366 11.25 5.51426 10.2052 3.65452 8.34548C1.79479 6.48574 0.75 3.9634 0.75 1.33333C0.75 1.17862 0.811458 1.03025 0.920854 0.920854C1.03025 0.811458 1.17862 0.75 1.33333 0.75H3.375C3.52971 0.75 3.67808 0.811458 3.78748 0.920854C3.89687 1.03025 3.95833 1.17862 3.95833 1.33333C3.95833 2.0625 4.075 2.7625 4.29083 3.41583C4.355 3.62 4.30833 3.8475 4.145 4.01083L2.86167 5.29417Z" fill="white"/>
</svg>
