<svg width="176" height="162" viewBox="0 0 176 162" fill="none" xmlns="http://www.w3.org/2000/svg">
<path d="M118.07 100.27C117.836 100.946 117.472 101.57 116.978 102.142C116.484 102.714 115.756 103 114.794 103H113.585V102.61C113.741 102.61 113.949 102.571 114.209 102.493C114.469 102.389 114.742 102.233 115.028 102.025C115.314 101.817 115.6 101.557 115.886 101.245C116.172 100.907 116.419 100.491 116.627 99.997L123.998 79.795C124.128 79.405 124.193 79.106 124.193 78.898C124.193 78.508 124.076 78.209 123.842 78.001C123.634 77.767 123.413 77.65 123.179 77.65V77.26H126.377L135.113 101.128C135.243 101.492 135.49 101.83 135.854 102.142C136.218 102.428 136.621 102.584 137.063 102.61V103H131.486V102.61C131.694 102.61 131.902 102.532 132.11 102.376C132.344 102.194 132.461 101.96 132.461 101.674C132.461 101.596 132.435 101.479 132.383 101.323L125.051 81.121L118.07 100.27Z" fill="white"/>
<path d="M139.968 102.61H140.163C140.371 102.61 140.553 102.545 140.709 102.415C140.865 102.259 140.995 102.077 141.099 101.869C141.229 101.661 141.32 101.44 141.372 101.206C141.45 100.972 141.489 100.751 141.489 100.543V79.678C141.489 79.496 141.45 79.288 141.372 79.054C141.32 78.82 141.229 78.599 141.099 78.391C140.995 78.183 140.865 78.014 140.709 77.884C140.553 77.728 140.371 77.65 140.163 77.65H139.968V77.26H154.983V80.887H154.593C154.541 80.289 154.307 79.769 153.891 79.327C153.475 78.859 152.825 78.625 151.941 78.625H144.102V88.492H150.576C151.174 88.492 151.668 88.31 152.058 87.946C152.474 87.582 152.682 87.153 152.682 86.659H153.072V91.534H152.682C152.682 91.066 152.487 90.663 152.097 90.325C151.707 89.987 151.2 89.818 150.576 89.818H144.102V101.635H152.643C153.137 101.635 153.566 101.518 153.93 101.284C154.294 101.05 154.593 100.777 154.827 100.465C155.087 100.127 155.269 99.776 155.373 99.412C155.503 99.022 155.568 98.697 155.568 98.437H155.958V103H139.968V102.61Z" fill="white"/>
<path d="M168.764 102.61H168.959V103H163.421V102.61H163.616C163.824 102.61 164.006 102.532 164.162 102.376C164.318 102.22 164.448 102.038 164.552 101.83C164.682 101.622 164.773 101.401 164.825 101.167C164.877 100.907 164.903 100.673 164.903 100.465V78.703H160.379C159.963 78.703 159.599 78.794 159.287 78.976C158.975 79.158 158.715 79.392 158.507 79.678C158.299 79.938 158.143 80.237 158.039 80.575C157.935 80.887 157.883 81.199 157.883 81.511H157.493V77.26H175.004V81.511H174.614C174.614 81.199 174.562 80.887 174.458 80.575C174.354 80.237 174.198 79.938 173.99 79.678C173.782 79.392 173.522 79.158 173.21 78.976C172.898 78.794 172.534 78.703 172.118 78.703H167.516V100.465C167.516 100.673 167.542 100.907 167.594 101.167C167.646 101.401 167.724 101.622 167.828 101.83C167.958 102.038 168.088 102.22 168.218 102.376C168.374 102.532 168.556 102.61 168.764 102.61Z" fill="white"/>
<path d="M20.575 134.375C20.575 134.508 20.5917 134.658 20.625 134.825C20.6583 134.975 20.7083 135.117 20.775 135.25C20.8417 135.383 20.9167 135.5 21 135.6C21.1 135.7 21.2083 135.75 21.325 135.75V136H18.175V135.75C18.2917 135.75 18.3917 135.708 18.475 135.625C18.575 135.525 18.6583 135.408 18.725 135.275C18.7917 135.125 18.8417 134.975 18.875 134.825C18.9083 134.658 18.925 134.508 18.925 134.375V127.05C18.925 126.933 18.9083 126.8 18.875 126.65C18.8417 126.5 18.7917 126.358 18.725 126.225C18.6583 126.092 18.575 125.983 18.475 125.9C18.3917 125.8 18.2917 125.75 18.175 125.75V125.5H21.325V125.75C21.1917 125.75 21.075 125.8 20.975 125.9C20.8917 125.983 20.8167 126.092 20.75 126.225C20.7 126.358 20.6583 126.5 20.625 126.65C20.5917 126.8 20.575 126.933 20.575 127.05V130.075H26.275V127.05C26.275 126.933 26.2583 126.8 26.225 126.65C26.1917 126.5 26.1417 126.358 26.075 126.225C26.025 126.092 25.95 125.983 25.85 125.9C25.7667 125.8 25.6583 125.75 25.525 125.75V125.5H28.675V125.75C28.5417 125.75 28.425 125.8 28.325 125.9C28.2417 125.983 28.1667 126.092 28.1 126.225C28.0333 126.358 27.9833 126.5 27.95 126.65C27.9333 126.8 27.925 126.933 27.925 127.05V134.375C27.925 134.508 27.9417 134.658 27.975 134.825C28.0083 134.975 28.0583 135.117 28.125 135.25C28.1917 135.383 28.2667 135.5 28.35 135.6C28.45 135.7 28.5583 135.75 28.675 135.75V136H25.525V135.75C25.6417 135.75 25.7417 135.708 25.825 135.625C25.925 135.525 26.0083 135.408 26.075 135.275C26.1417 135.125 26.1917 134.975 26.225 134.825C26.2583 134.658 26.275 134.508 26.275 134.375V130.9H20.575V134.375Z" fill="white"/>
<path d="M37.6889 136V134.725L37.5639 134.85C37.1472 135.267 36.6639 135.592 36.1139 135.825C35.5805 136.058 34.9305 136.175 34.1639 136.175C33.5805 136.175 33.0805 136.108 32.6639 135.975C32.2472 135.842 31.9055 135.658 31.6389 135.425C31.3722 135.175 31.1722 134.892 31.0389 134.575C30.9222 134.258 30.8639 133.925 30.8639 133.575C30.8639 133.008 31.0139 132.508 31.3139 132.075C31.6305 131.642 32.0805 131.258 32.6639 130.925C33.2472 130.592 33.9555 130.292 34.7889 130.025C35.6389 129.742 36.6055 129.467 37.6889 129.2C37.6555 128.55 37.5222 128.025 37.2889 127.625C37.0555 127.225 36.7805 126.917 36.4639 126.7C36.1472 126.467 35.8139 126.317 35.4639 126.25C35.1139 126.167 34.8139 126.125 34.5639 126.125C34.1305 126.125 33.7472 126.192 33.4139 126.325C33.0805 126.442 32.7889 126.608 32.5389 126.825C32.2889 127.025 32.0805 127.258 31.9139 127.525C31.7639 127.792 31.6472 128.058 31.5639 128.325H31.3389V126.375C31.4889 126.375 31.6639 126.325 31.8639 126.225C32.0639 126.108 32.2972 125.983 32.5639 125.85C32.8472 125.717 33.1805 125.6 33.5639 125.5C33.9639 125.383 34.4389 125.325 34.9889 125.325C35.9055 125.325 36.6472 125.442 37.2139 125.675C37.7805 125.908 38.2139 126.217 38.5139 126.6C38.8305 126.983 39.0389 127.425 39.1389 127.925C39.2389 128.408 39.2889 128.908 39.2889 129.425V134.375C39.2889 134.708 39.3722 135.025 39.5389 135.325C39.7055 135.608 39.9305 135.75 40.2139 135.75V136H37.6889ZM37.6889 133.625V130.05L37.4389 130.1C37.0389 130.2 36.5472 130.333 35.9639 130.5C35.3972 130.667 34.8555 130.883 34.3389 131.15C33.8222 131.417 33.3805 131.733 33.0139 132.1C32.6472 132.467 32.4639 132.892 32.4639 133.375C32.4639 133.908 32.6805 134.35 33.1139 134.7C33.5472 135.05 34.1139 135.225 34.8139 135.225C35.3639 135.225 35.8472 135.108 36.2639 134.875C36.6805 134.625 37.0639 134.308 37.4139 133.925L37.6889 133.625Z" fill="white"/>
<path d="M54.3338 125.325C55.2338 125.325 56.0088 125.483 56.6588 125.8C57.3255 126.1 57.8754 126.5 58.3088 127C58.7588 127.5 59.0921 128.075 59.3088 128.725C59.5254 129.375 59.6338 130.042 59.6338 130.725C59.6338 131.392 59.5254 132.05 59.3088 132.7C59.1088 133.35 58.7921 133.933 58.3588 134.45C57.9421 134.967 57.4171 135.383 56.7838 135.7C56.1505 136.017 55.4005 136.175 54.5338 136.175C54.0171 136.175 53.4838 136.042 52.9338 135.775C52.4004 135.492 51.9171 135.142 51.4838 134.725V139.875C51.4838 140.008 51.5005 140.15 51.5338 140.3C51.5671 140.467 51.6171 140.617 51.6838 140.75C51.7671 140.883 51.8504 141 51.9338 141.1C52.0338 141.2 52.1504 141.25 52.2838 141.25V141.5H49.0338V141.25C49.1504 141.25 49.2588 141.2 49.3588 141.1C49.4588 141 49.5421 140.883 49.6088 140.75C49.6921 140.617 49.7505 140.467 49.7838 140.3C49.8171 140.15 49.8338 140.008 49.8338 139.875V126.975C49.8338 126.825 49.8254 126.683 49.8088 126.55C49.8088 126.4 49.7838 126.275 49.7338 126.175C49.6838 126.058 49.6004 125.967 49.4838 125.9C49.3838 125.817 49.2338 125.767 49.0338 125.75V125.5H51.4838V126.6C51.8171 126.2 52.2171 125.892 52.6838 125.675C53.1671 125.442 53.7171 125.325 54.3338 125.325ZM54.5588 135.325C55.1421 135.308 55.6504 135.175 56.0838 134.925C56.5171 134.675 56.8755 134.35 57.1588 133.95C57.4421 133.55 57.6504 133.108 57.7838 132.625C57.9171 132.125 57.9838 131.608 57.9838 131.075C57.9838 130.475 57.9004 129.883 57.7338 129.3C57.5671 128.717 57.3254 128.2 57.0088 127.75C56.6921 127.283 56.3004 126.908 55.8338 126.625C55.3838 126.325 54.8671 126.175 54.2838 126.175C53.9338 126.175 53.5838 126.242 53.2338 126.375C52.9004 126.508 52.6004 126.7 52.3338 126.95C52.0838 127.2 51.8754 127.5 51.7088 127.85C51.5588 128.183 51.4838 128.558 51.4838 128.975V132.25C51.4838 132.7 51.5754 133.117 51.7588 133.5C51.9421 133.867 52.1754 134.192 52.4588 134.475C52.7588 134.742 53.0921 134.95 53.4588 135.1C53.8254 135.25 54.1921 135.325 54.5588 135.325Z" fill="white"/>
<path d="M72.225 136V135.75C72.3417 135.75 72.45 135.708 72.55 135.625C72.65 135.525 72.7333 135.408 72.8 135.275C72.8833 135.125 72.9417 134.975 72.975 134.825C73.0083 134.658 73.025 134.508 73.025 134.375V127.05C73.025 126.933 73.0083 126.8 72.975 126.65C72.9417 126.5 72.8833 126.358 72.8 126.225C72.7333 126.092 72.65 125.983 72.55 125.9C72.45 125.8 72.3417 125.75 72.225 125.75V125.5H75.475V125.75C75.225 125.75 75.025 125.908 74.875 126.225C74.725 126.525 74.65 126.8 74.65 127.05V134.375C74.65 134.508 74.6667 134.658 74.7 134.825C74.7333 134.975 74.7833 135.117 74.85 135.25C74.9333 135.383 75.025 135.5 75.125 135.6C75.225 135.7 75.3417 135.75 75.475 135.75V136H72.225ZM66.325 130.05C67.8583 130.05 68.9917 130.333 69.725 130.9C70.475 131.467 70.85 132.167 70.85 133C70.85 133.417 70.75 133.808 70.55 134.175C70.3667 134.542 70.0833 134.858 69.7 135.125C69.3167 135.392 68.8333 135.608 68.25 135.775C67.6667 135.925 66.975 136 66.175 136H61.925V135.75C62.0417 135.75 62.15 135.708 62.25 135.625C62.35 135.525 62.4333 135.408 62.5 135.275C62.5833 135.125 62.6417 134.975 62.675 134.825C62.7083 134.658 62.725 134.508 62.725 134.375V127.05C62.725 126.933 62.7083 126.8 62.675 126.65C62.6417 126.5 62.5833 126.358 62.5 126.225C62.4333 126.092 62.35 125.983 62.25 125.9C62.15 125.8 62.0417 125.75 61.925 125.75V125.5H65.175V125.75C64.925 125.75 64.725 125.908 64.575 126.225C64.425 126.525 64.35 126.8 64.35 127.05V130.05H66.325ZM66.125 135.175C67.225 135.175 68.0167 135 68.5 134.65C69 134.283 69.25 133.833 69.25 133.3C69.25 133 69.1833 132.708 69.05 132.425C68.9167 132.125 68.7083 131.867 68.425 131.65C68.1583 131.417 67.825 131.233 67.425 131.1C67.025 130.95 66.5667 130.875 66.05 130.875H64.35V135.175H66.125Z" fill="white"/>
<path d="M80.3894 134.375C80.3894 134.508 80.4061 134.658 80.4394 134.825C80.4728 134.975 80.5228 135.117 80.5894 135.25C80.6561 135.383 80.7311 135.5 80.8144 135.6C80.9144 135.7 81.0228 135.75 81.1394 135.75V136H77.9894V135.75C78.1061 135.75 78.2061 135.708 78.2894 135.625C78.3894 135.525 78.4728 135.408 78.5394 135.275C78.6061 135.125 78.6561 134.975 78.6894 134.825C78.7228 134.658 78.7394 134.508 78.7394 134.375V127.05C78.7394 126.933 78.7228 126.8 78.6894 126.65C78.6561 126.5 78.6061 126.358 78.5394 126.225C78.4728 126.092 78.3894 125.983 78.2894 125.9C78.2061 125.8 78.1061 125.75 77.9894 125.75V125.5H81.1394V125.75C81.0061 125.75 80.8894 125.8 80.7894 125.9C80.7061 125.983 80.6311 126.092 80.5644 126.225C80.5144 126.358 80.4728 126.5 80.4394 126.65C80.4061 126.8 80.3894 126.933 80.3894 127.05V130.075H86.0894V127.05C86.0894 126.933 86.0728 126.8 86.0394 126.65C86.0061 126.5 85.9561 126.358 85.8894 126.225C85.8394 126.092 85.7644 125.983 85.6644 125.9C85.5811 125.8 85.4728 125.75 85.3394 125.75V125.5H88.4894V125.75C88.3561 125.75 88.2394 125.8 88.1394 125.9C88.0561 125.983 87.9811 126.092 87.9144 126.225C87.8478 126.358 87.7978 126.5 87.7644 126.65C87.7478 126.8 87.7394 126.933 87.7394 127.05V134.375C87.7394 134.508 87.7561 134.658 87.7894 134.825C87.8228 134.975 87.8728 135.117 87.9394 135.25C88.0061 135.383 88.0811 135.5 88.1644 135.6C88.2644 135.7 88.3728 135.75 88.4894 135.75V136H85.3394V135.75C85.4561 135.75 85.5561 135.708 85.6394 135.625C85.7394 135.525 85.8228 135.408 85.8894 135.275C85.9561 135.125 86.0061 134.975 86.0394 134.825C86.0728 134.658 86.0894 134.508 86.0894 134.375V130.9H80.3894V134.375Z" fill="white"/>
<path d="M98.4783 134.05C98.5783 134.233 98.7116 134.425 98.8783 134.625C99.045 134.825 99.2283 135.008 99.4283 135.175C99.645 135.342 99.8616 135.483 100.078 135.6C100.295 135.7 100.503 135.75 100.703 135.75V136H99.7533C98.9866 136 98.395 135.842 97.9783 135.525C97.5616 135.208 97.2366 134.833 97.0033 134.4L95.8283 132.175C95.645 131.825 95.3366 131.525 94.9033 131.275C94.47 131.008 94.0116 130.875 93.5283 130.875V134.425C93.5283 134.558 93.5366 134.7 93.5533 134.85C93.5866 135 93.6366 135.142 93.7033 135.275C93.77 135.408 93.8533 135.525 93.9533 135.625C94.0533 135.708 94.17 135.75 94.3033 135.75V136H91.0783V135.75C91.195 135.75 91.3033 135.708 91.4033 135.625C91.52 135.525 91.6116 135.408 91.6783 135.275C91.745 135.142 91.795 135 91.8283 134.85C91.8616 134.7 91.8783 134.558 91.8783 134.425V127.075C91.8783 126.958 91.8616 126.825 91.8283 126.675C91.795 126.508 91.745 126.358 91.6783 126.225C91.6283 126.092 91.5533 125.983 91.4533 125.9C91.3533 125.8 91.2283 125.75 91.0783 125.75V125.5H94.2783V125.75C94.1616 125.75 94.0533 125.8 93.9533 125.9C93.87 125.983 93.795 126.092 93.7283 126.225C93.6616 126.358 93.6116 126.508 93.5783 126.675C93.545 126.825 93.5283 126.958 93.5283 127.075V129.65C94.245 129.017 94.9533 128.408 95.6533 127.825C96.3533 127.225 97.0616 126.608 97.7783 125.975C97.7783 125.958 97.7866 125.942 97.8033 125.925C97.82 125.908 97.8283 125.892 97.8283 125.875C97.8283 125.792 97.7866 125.75 97.7033 125.75V125.5H99.8783V125.75C99.795 125.75 99.695 125.775 99.5783 125.825C99.4616 125.875 99.345 125.933 99.2283 126C99.095 126.067 98.9616 126.15 98.8283 126.25C98.0783 126.883 97.3283 127.533 96.5783 128.2C95.8283 128.85 95.0783 129.492 94.3283 130.125C95.045 130.125 95.6283 130.258 96.0783 130.525C96.545 130.792 96.9366 131.217 97.2533 131.8L98.4783 134.05Z" fill="white"/>
<path d="M102.532 130.95C102.599 131.533 102.741 132.092 102.957 132.625C103.174 133.142 103.457 133.6 103.807 134C104.174 134.4 104.616 134.725 105.132 134.975C105.649 135.208 106.249 135.325 106.932 135.325C107.299 135.325 107.682 135.275 108.082 135.175C108.499 135.058 108.882 134.9 109.232 134.7C109.582 134.5 109.891 134.258 110.157 133.975C110.441 133.675 110.632 133.342 110.732 132.975H110.957V134.85C110.857 134.85 110.741 134.883 110.607 134.95C110.491 135.017 110.349 135.1 110.182 135.2C109.849 135.4 109.399 135.617 108.832 135.85C108.266 136.067 107.516 136.175 106.582 136.175C105.832 136.175 105.116 136.067 104.432 135.85C103.766 135.633 103.174 135.3 102.657 134.85C102.141 134.4 101.724 133.825 101.407 133.125C101.107 132.425 100.957 131.592 100.957 130.625C100.957 130.008 101.057 129.383 101.257 128.75C101.474 128.117 101.791 127.55 102.207 127.05C102.641 126.533 103.191 126.117 103.857 125.8C104.524 125.483 105.324 125.325 106.257 125.325C107.091 125.325 107.816 125.467 108.432 125.75C109.066 126.033 109.582 126.425 109.982 126.925C110.399 127.425 110.707 128.017 110.907 128.7C111.107 129.383 111.207 130.133 111.207 130.95H102.532ZM106.157 126.15C105.574 126.15 105.066 126.267 104.632 126.5C104.216 126.733 103.857 127.033 103.557 127.4C103.257 127.767 103.024 128.183 102.857 128.65C102.691 129.117 102.582 129.583 102.532 130.05H109.657C109.641 129.567 109.549 129.092 109.382 128.625C109.232 128.158 109.016 127.742 108.732 127.375C108.449 127.008 108.091 126.717 107.657 126.5C107.224 126.267 106.724 126.15 106.157 126.15Z" fill="white"/>
<path d="M20.575 157.375C20.575 157.508 20.5917 157.658 20.625 157.825C20.6583 157.975 20.7083 158.117 20.775 158.25C20.8417 158.383 20.9167 158.5 21 158.6C21.1 158.7 21.2083 158.75 21.325 158.75V159H18.175V158.75C18.2917 158.75 18.3917 158.708 18.475 158.625C18.575 158.525 18.6583 158.408 18.725 158.275C18.7917 158.125 18.8417 157.975 18.875 157.825C18.9083 157.658 18.925 157.508 18.925 157.375V150.05C18.925 149.933 18.9083 149.8 18.875 149.65C18.8417 149.5 18.7917 149.358 18.725 149.225C18.6583 149.092 18.575 148.983 18.475 148.9C18.3917 148.8 18.2917 148.75 18.175 148.75V148.5H21.325V148.75C21.1917 148.75 21.075 148.8 20.975 148.9C20.8917 148.983 20.8167 149.092 20.75 149.225C20.7 149.358 20.6583 149.5 20.625 149.65C20.5917 149.8 20.575 149.933 20.575 150.05V153.075H26.275V150.05C26.275 149.933 26.2583 149.8 26.225 149.65C26.1917 149.5 26.1417 149.358 26.075 149.225C26.025 149.092 25.95 148.983 25.85 148.9C25.7667 148.8 25.6583 148.75 25.525 148.75V148.5H28.675V148.75C28.5417 148.75 28.425 148.8 28.325 148.9C28.2417 148.983 28.1667 149.092 28.1 149.225C28.0333 149.358 27.9833 149.5 27.95 149.65C27.9333 149.8 27.925 149.933 27.925 150.05V157.375C27.925 157.508 27.9417 157.658 27.975 157.825C28.0083 157.975 28.0583 158.117 28.125 158.25C28.1917 158.383 28.2667 158.5 28.35 158.6C28.45 158.7 28.5583 158.75 28.675 158.75V159H25.525V158.75C25.6417 158.75 25.7417 158.708 25.825 158.625C25.925 158.525 26.0083 158.408 26.075 158.275C26.1417 158.125 26.1917 157.975 26.225 157.825C26.2583 157.658 26.275 157.508 26.275 157.375V153.9H20.575V157.375Z" fill="white"/>
<path d="M32.4639 153.95C32.5305 154.533 32.6722 155.092 32.8889 155.625C33.1055 156.142 33.3889 156.6 33.7389 157C34.1055 157.4 34.5472 157.725 35.0639 157.975C35.5805 158.208 36.1805 158.325 36.8639 158.325C37.2305 158.325 37.6139 158.275 38.0139 158.175C38.4305 158.058 38.8139 157.9 39.1639 157.7C39.5139 157.5 39.8222 157.258 40.0889 156.975C40.3722 156.675 40.5639 156.342 40.6639 155.975H40.8889V157.85C40.7889 157.85 40.6722 157.883 40.5389 157.95C40.4222 158.017 40.2805 158.1 40.1139 158.2C39.7805 158.4 39.3305 158.617 38.7639 158.85C38.1972 159.067 37.4472 159.175 36.5139 159.175C35.7639 159.175 35.0472 159.067 34.3639 158.85C33.6972 158.633 33.1055 158.3 32.5889 157.85C32.0722 157.4 31.6555 156.825 31.3389 156.125C31.0389 155.425 30.8889 154.592 30.8889 153.625C30.8889 153.008 30.9889 152.383 31.1889 151.75C31.4055 151.117 31.7222 150.55 32.1389 150.05C32.5722 149.533 33.1222 149.117 33.7889 148.8C34.4555 148.483 35.2555 148.325 36.1889 148.325C37.0222 148.325 37.7472 148.467 38.3639 148.75C38.9972 149.033 39.5139 149.425 39.9139 149.925C40.3305 150.425 40.6389 151.017 40.8389 151.7C41.0389 152.383 41.1389 153.133 41.1389 153.95H32.4639ZM36.0889 149.15C35.5055 149.15 34.9972 149.267 34.5639 149.5C34.1472 149.733 33.7889 150.033 33.4889 150.4C33.1889 150.767 32.9555 151.183 32.7889 151.65C32.6222 152.117 32.5139 152.583 32.4639 153.05H39.5889C39.5722 152.567 39.4805 152.092 39.3139 151.625C39.1639 151.158 38.9472 150.742 38.6639 150.375C38.3805 150.008 38.0222 149.717 37.5889 149.5C37.1555 149.267 36.6555 149.15 36.0889 149.15Z" fill="white"/>
<path d="M53.7617 158.175V161.25H53.5117C53.4784 161.05 53.42 160.817 53.3367 160.55C53.2534 160.3 53.1367 160.058 52.9867 159.825C52.8367 159.592 52.6534 159.392 52.4367 159.225C52.2367 159.075 52.0034 159 51.7367 159H43.7867C43.52 159 43.2784 159.075 43.0617 159.225C42.845 159.392 42.6534 159.592 42.4867 159.825C42.3367 160.058 42.2117 160.3 42.1117 160.55C42.0284 160.817 41.9784 161.05 41.9617 161.25H41.7117V158.175H42.6617C42.7617 158.175 42.8534 158.133 42.9367 158.05C43.0367 157.967 43.1284 157.867 43.2117 157.75C43.3117 157.633 43.4034 157.508 43.4867 157.375C43.57 157.225 43.645 157.092 43.7117 156.975C43.9617 156.408 44.2617 155.733 44.6117 154.95C44.9784 154.167 45.345 153.358 45.7117 152.525C46.095 151.692 46.4617 150.883 46.8117 150.1C47.1617 149.3 47.4617 148.617 47.7117 148.05L51.9367 157.275C52.07 157.558 52.195 157.783 52.3117 157.95C52.4284 158.1 52.5867 158.175 52.7867 158.175H53.7617ZM44.0367 158.175H50.5367L47.2867 151.05L44.0367 158.175Z" fill="white"/>
<path d="M63.7094 151C63.7094 151.283 63.651 151.55 63.5344 151.8C63.4177 152.05 63.2677 152.283 63.0844 152.5C62.9177 152.7 62.7177 152.883 62.4844 153.05C62.251 153.2 62.026 153.317 61.8094 153.4C62.0927 153.45 62.3844 153.542 62.6844 153.675C63.001 153.808 63.2844 153.983 63.5344 154.2C63.801 154.417 64.0177 154.692 64.1844 155.025C64.351 155.342 64.4344 155.725 64.4344 156.175C64.4344 156.408 64.376 156.692 64.2594 157.025C64.1594 157.342 63.9677 157.65 63.6844 157.95C63.4177 158.233 63.0427 158.483 62.5594 158.7C62.0927 158.9 61.4844 159 60.7344 159H55.2344V158.75C55.3677 158.75 55.4844 158.7 55.5844 158.6C55.6844 158.5 55.7677 158.383 55.8344 158.25C55.9177 158.117 55.976 157.975 56.0094 157.825C56.0427 157.658 56.0594 157.508 56.0594 157.375V150.075C56.0594 149.808 55.9844 149.525 55.8344 149.225C55.701 148.908 55.501 148.75 55.2344 148.75V148.5H60.3344C60.9344 148.5 61.4427 148.583 61.8594 148.75C62.2927 148.9 62.6427 149.1 62.9094 149.35C63.1927 149.583 63.3927 149.85 63.5094 150.15C63.6427 150.433 63.7094 150.717 63.7094 151ZM57.6844 153.075H59.6094C60.0927 153.075 60.4927 153.025 60.8094 152.925C61.1427 152.808 61.4094 152.658 61.6094 152.475C61.8094 152.292 61.951 152.083 62.0344 151.85C62.1344 151.617 62.1844 151.375 62.1844 151.125C62.1844 150.925 62.126 150.717 62.0094 150.5C61.8927 150.283 61.7177 150.092 61.4844 149.925C61.2677 149.742 61.001 149.592 60.6844 149.475C60.3677 149.358 60.0094 149.3 59.6094 149.3H57.6844V153.075ZM60.1344 158.2C60.3344 158.2 60.5844 158.183 60.8844 158.15C61.201 158.1 61.501 158.008 61.7844 157.875C62.0844 157.725 62.3344 157.517 62.5344 157.25C62.751 156.967 62.8594 156.6 62.8594 156.15C62.8594 155.667 62.7177 155.275 62.4344 154.975C62.151 154.675 61.8177 154.45 61.4344 154.3C61.0677 154.133 60.6844 154.025 60.2844 153.975C59.8844 153.925 59.576 153.9 59.3594 153.9H57.6844V158.2H60.1344Z" fill="white"/>
<path d="M76.6363 157.375C76.6363 157.508 76.653 157.658 76.6863 157.825C76.7363 157.975 76.7947 158.117 76.8613 158.25C76.928 158.383 77.0113 158.5 77.1113 158.6C77.228 158.7 77.3363 158.75 77.4363 158.75V159H74.2363V158.75C74.353 158.75 74.4613 158.708 74.5613 158.625C74.6613 158.525 74.7447 158.408 74.8113 158.275C74.878 158.125 74.928 157.975 74.9613 157.825C74.9947 157.658 75.0113 157.508 75.0113 157.375V151.375L69.0613 157.2V157.375C69.0613 157.508 69.078 157.658 69.1113 157.825C69.1447 157.975 69.1947 158.117 69.2613 158.25C69.328 158.383 69.403 158.5 69.4863 158.6C69.5863 158.7 69.6946 158.75 69.8113 158.75V159H66.6363V158.75C66.753 158.75 66.8613 158.708 66.9613 158.625C67.0613 158.525 67.1447 158.408 67.2113 158.275C67.278 158.125 67.328 157.975 67.3613 157.825C67.3947 157.658 67.4113 157.508 67.4113 157.375V150.05C67.4113 149.933 67.3947 149.8 67.3613 149.65C67.328 149.5 67.278 149.358 67.2113 149.225C67.1447 149.092 67.0613 148.983 66.9613 148.9C66.8613 148.8 66.753 148.75 66.6363 148.75V148.5H69.8113V148.75C69.678 148.75 69.5613 148.8 69.4613 148.9C69.378 148.983 69.303 149.092 69.2363 149.225C69.1863 149.358 69.1447 149.5 69.1113 149.65C69.078 149.8 69.0613 149.933 69.0613 150.05V156.025L75.0113 150.2V150.05C75.0113 149.933 74.9947 149.8 74.9613 149.65C74.928 149.5 74.878 149.358 74.8113 149.225C74.7447 149.092 74.6613 148.983 74.5613 148.9C74.4613 148.8 74.353 148.75 74.2363 148.75V148.5H77.4363V148.75C77.303 148.75 77.178 148.8 77.0613 148.9C76.9613 148.983 76.878 149.092 76.8113 149.225C76.7613 149.358 76.7197 149.5 76.6863 149.65C76.653 149.8 76.6363 149.933 76.6363 150.05V157.375Z" fill="white"/>
<path d="M91.8437 157.025C91.9437 157.225 92.0687 157.425 92.2187 157.625C92.3854 157.825 92.5604 158.008 92.7437 158.175C92.9271 158.325 93.1187 158.458 93.3187 158.575C93.5354 158.675 93.7354 158.733 93.9187 158.75V159H93.0437C92.3437 159 91.7937 158.858 91.3937 158.575C91.0104 158.275 90.7021 157.9 90.4687 157.45L89.2687 155.1C89.1187 154.717 88.8521 154.383 88.4687 154.1C88.0854 153.817 87.6854 153.658 87.2687 153.625V157.35C87.2687 157.467 87.2854 157.608 87.3187 157.775C87.3521 157.925 87.4021 158.075 87.4687 158.225C87.5521 158.358 87.6437 158.475 87.7437 158.575C87.8437 158.675 87.9604 158.733 88.0937 158.75V159H84.8937V158.75C85.0271 158.733 85.1437 158.675 85.2437 158.575C85.3437 158.475 85.4271 158.358 85.4937 158.225C85.5771 158.075 85.6354 157.925 85.6687 157.775C85.7021 157.625 85.7187 157.483 85.7187 157.35V153.625C85.2854 153.658 84.8854 153.817 84.5187 154.1C84.1687 154.383 83.9021 154.717 83.7187 155.1L82.5437 157.45C82.3271 157.883 82.0104 158.25 81.5937 158.55C81.1937 158.85 80.6437 159 79.9437 159H79.0687V158.75C79.2521 158.733 79.4437 158.675 79.6437 158.575C79.8437 158.458 80.0354 158.325 80.2187 158.175C80.4187 158.008 80.5937 157.825 80.7437 157.625C80.9104 157.425 81.0437 157.225 81.1437 157.025L82.3187 154.6C82.5187 154.217 82.8521 153.883 83.3187 153.6C83.8021 153.3 84.3521 153.133 84.9687 153.1C84.3354 152.5 83.6604 151.858 82.9437 151.175C82.2271 150.492 81.5437 149.85 80.8937 149.25C80.8437 149.217 80.7104 149.133 80.4937 149C80.2937 148.85 80.1104 148.767 79.9437 148.75V148.5H81.8687V148.775C81.8187 148.808 81.7937 148.833 81.7937 148.85C81.7937 148.933 81.8187 149.008 81.8687 149.075L85.7187 152.65V150.075C85.7187 149.842 85.6437 149.575 85.4937 149.275C85.3604 148.958 85.1604 148.783 84.8937 148.75V148.5H88.0937V148.75C87.9604 148.767 87.8437 148.825 87.7437 148.925C87.6437 149.008 87.5604 149.117 87.4937 149.25C87.4271 149.383 87.3687 149.525 87.3187 149.675C87.2854 149.825 87.2687 149.958 87.2687 150.075V152.65L91.1437 149.025C91.1771 148.992 91.1937 148.933 91.1937 148.85C91.1937 148.833 91.1687 148.808 91.1187 148.775V148.5H93.0437V148.75C92.9604 148.75 92.8604 148.775 92.7437 148.825C92.6437 148.875 92.5437 148.933 92.4437 149C92.3271 149.067 92.2104 149.15 92.0937 149.25L88.0187 153.1C88.6854 153.117 89.2437 153.267 89.6937 153.55C90.1437 153.817 90.4687 154.167 90.6687 154.6L91.8437 157.025Z" fill="white"/>
<path d="M105.543 157.375C105.543 157.508 105.559 157.658 105.593 157.825C105.643 157.975 105.701 158.117 105.768 158.25C105.834 158.383 105.918 158.5 106.018 158.6C106.134 158.7 106.243 158.75 106.343 158.75V159H103.143V158.75C103.259 158.75 103.368 158.708 103.468 158.625C103.568 158.525 103.651 158.408 103.718 158.275C103.784 158.125 103.834 157.975 103.868 157.825C103.901 157.658 103.918 157.508 103.918 157.375V151.375L97.9676 157.2V157.375C97.9676 157.508 97.9842 157.658 98.0176 157.825C98.0509 157.975 98.1009 158.117 98.1676 158.25C98.2342 158.383 98.3092 158.5 98.3926 158.6C98.4926 158.7 98.6009 158.75 98.7176 158.75V159H95.5426V158.75C95.6592 158.75 95.7676 158.708 95.8676 158.625C95.9676 158.525 96.0509 158.408 96.1176 158.275C96.1842 158.125 96.2342 157.975 96.2676 157.825C96.3009 157.658 96.3176 157.508 96.3176 157.375V150.05C96.3176 149.933 96.3009 149.8 96.2676 149.65C96.2342 149.5 96.1842 149.358 96.1176 149.225C96.0509 149.092 95.9676 148.983 95.8676 148.9C95.7676 148.8 95.6592 148.75 95.5426 148.75V148.5H98.7176V148.75C98.5842 148.75 98.4676 148.8 98.3676 148.9C98.2842 148.983 98.2092 149.092 98.1426 149.225C98.0926 149.358 98.0509 149.5 98.0176 149.65C97.9842 149.8 97.9676 149.933 97.9676 150.05V156.025L103.918 150.2V150.05C103.918 149.933 103.901 149.8 103.868 149.65C103.834 149.5 103.784 149.358 103.718 149.225C103.651 149.092 103.568 148.983 103.468 148.9C103.368 148.8 103.259 148.75 103.143 148.75V148.5H106.343V148.75C106.209 148.75 106.084 148.8 105.968 148.9C105.868 148.983 105.784 149.092 105.718 149.225C105.668 149.358 105.626 149.5 105.593 149.65C105.559 149.8 105.543 149.933 105.543 150.05V157.375Z" fill="white"/>
<path d="M120.2 157.375C120.2 157.508 120.217 157.658 120.25 157.825C120.283 157.975 120.333 158.117 120.4 158.25C120.483 158.383 120.575 158.5 120.675 158.6C120.775 158.7 120.892 158.75 121.025 158.75V159H117.775V158.75C117.908 158.75 118.025 158.708 118.125 158.625C118.225 158.525 118.308 158.408 118.375 158.275C118.442 158.125 118.492 157.975 118.525 157.825C118.558 157.658 118.575 157.508 118.575 157.375V150.625L114.4 159.225L110.4 151.125V157.375C110.4 157.508 110.417 157.658 110.45 157.825C110.483 157.975 110.533 158.117 110.6 158.25C110.667 158.383 110.75 158.5 110.85 158.6C110.95 158.7 111.067 158.75 111.2 158.75V159H108.775V158.75C108.908 158.75 109.025 158.7 109.125 158.6C109.225 158.5 109.3 158.383 109.35 158.25C109.417 158.117 109.467 157.975 109.5 157.825C109.533 157.658 109.55 157.508 109.55 157.375V150.05C109.55 149.75 109.508 149.458 109.425 149.175C109.358 148.892 109.142 148.75 108.775 148.75V148.5H111L114.825 156.325L118.65 148.5H121.025V148.75C120.775 148.75 120.575 148.908 120.425 149.225C120.275 149.525 120.2 149.8 120.2 150.05V157.375Z" fill="white"/>
<path d="M128.722 159.175C127.888 159.175 127.138 159.042 126.472 158.775C125.805 158.492 125.23 158.117 124.747 157.65C124.28 157.167 123.913 156.6 123.647 155.95C123.397 155.3 123.272 154.592 123.272 153.825C123.272 153.008 123.413 152.267 123.697 151.6C123.98 150.917 124.372 150.333 124.872 149.85C125.372 149.367 125.963 148.992 126.647 148.725C127.33 148.458 128.072 148.325 128.872 148.325C129.672 148.325 130.405 148.458 131.072 148.725C131.738 148.975 132.313 149.333 132.797 149.8C133.28 150.267 133.655 150.825 133.922 151.475C134.188 152.108 134.322 152.808 134.322 153.575C134.322 154.292 134.197 154.992 133.947 155.675C133.713 156.342 133.355 156.933 132.872 157.45C132.405 157.967 131.822 158.383 131.122 158.7C130.438 159.017 129.638 159.175 128.722 159.175ZM128.572 149.15C127.972 149.183 127.438 149.333 126.972 149.6C126.522 149.85 126.138 150.183 125.822 150.6C125.522 151 125.288 151.458 125.122 151.975C124.972 152.492 124.897 153.017 124.897 153.55C124.897 154.167 124.988 154.767 125.172 155.35C125.372 155.917 125.647 156.425 125.997 156.875C126.363 157.325 126.797 157.683 127.297 157.95C127.797 158.217 128.355 158.35 128.972 158.35C129.588 158.35 130.13 158.217 130.597 157.95C131.08 157.683 131.48 157.342 131.797 156.925C132.113 156.492 132.347 156.008 132.497 155.475C132.663 154.942 132.747 154.408 132.747 153.875C132.747 153.325 132.663 152.775 132.497 152.225C132.33 151.658 132.072 151.15 131.722 150.7C131.372 150.233 130.93 149.858 130.397 149.575C129.88 149.292 129.272 149.15 128.572 149.15Z" fill="white"/>
<path d="M145.783 158.1C145.649 158.1 145.524 158.133 145.408 158.2C145.291 158.25 145.158 158.317 145.008 158.4C144.724 158.567 144.349 158.742 143.883 158.925C143.416 159.092 142.833 159.175 142.133 159.175C141.283 159.175 140.499 159.042 139.783 158.775C139.083 158.492 138.474 158.108 137.958 157.625C137.441 157.125 137.041 156.55 136.758 155.9C136.474 155.233 136.333 154.517 136.333 153.75C136.333 153.033 136.458 152.35 136.708 151.7C136.974 151.05 137.349 150.475 137.833 149.975C138.316 149.475 138.908 149.075 139.608 148.775C140.324 148.475 141.133 148.325 142.033 148.325C142.649 148.325 143.149 148.4 143.533 148.55C143.916 148.683 144.241 148.817 144.508 148.95C144.658 149.033 144.799 149.1 144.933 149.15C145.083 149.2 145.233 149.225 145.383 149.225V151.125H145.133C145.049 150.808 144.899 150.533 144.683 150.3C144.466 150.05 144.216 149.842 143.933 149.675C143.649 149.508 143.341 149.383 143.008 149.3C142.674 149.217 142.349 149.175 142.033 149.175C141.349 149.175 140.749 149.3 140.233 149.55C139.716 149.783 139.291 150.1 138.958 150.5C138.624 150.883 138.374 151.325 138.208 151.825C138.041 152.325 137.958 152.842 137.958 153.375C137.958 153.992 138.049 154.6 138.233 155.2C138.433 155.783 138.708 156.308 139.058 156.775C139.424 157.242 139.866 157.617 140.383 157.9C140.916 158.183 141.516 158.325 142.183 158.325C142.649 158.325 143.083 158.258 143.483 158.125C143.883 157.992 144.224 157.817 144.508 157.6C144.808 157.383 145.041 157.15 145.208 156.9C145.391 156.633 145.499 156.383 145.533 156.15H145.783V158.1Z" fill="white"/>
<path d="M155.896 151.125C155.896 150.942 155.863 150.742 155.796 150.525C155.73 150.308 155.63 150.117 155.496 149.95C155.363 149.767 155.196 149.617 154.996 149.5C154.796 149.383 154.563 149.325 154.296 149.325H152.096V157.375C152.096 157.508 152.113 157.65 152.146 157.8C152.18 157.95 152.23 158.1 152.296 158.25C152.38 158.383 152.463 158.5 152.546 158.6C152.646 158.7 152.763 158.75 152.896 158.75V159H149.646V158.75C149.78 158.75 149.896 158.7 149.996 158.6C150.096 158.5 150.18 158.383 150.246 158.25C150.33 158.117 150.388 157.975 150.421 157.825C150.455 157.658 150.471 157.508 150.471 157.375V149.325H148.321C148.055 149.325 147.821 149.383 147.621 149.5C147.421 149.617 147.255 149.767 147.121 149.95C147.005 150.117 146.913 150.308 146.846 150.525C146.78 150.742 146.746 150.942 146.746 151.125H146.496V148.5H156.121V151.125H155.896Z" fill="white"/>
<path d="M167.579 157.375C167.579 157.508 167.595 157.658 167.629 157.825C167.679 157.975 167.737 158.117 167.804 158.25C167.87 158.383 167.954 158.5 168.054 158.6C168.17 158.7 168.279 158.75 168.379 158.75V159H165.179V158.75C165.295 158.75 165.404 158.708 165.504 158.625C165.604 158.525 165.687 158.408 165.754 158.275C165.82 158.125 165.87 157.975 165.904 157.825C165.937 157.658 165.954 157.508 165.954 157.375V151.375L160.004 157.2V157.375C160.004 157.508 160.02 157.658 160.054 157.825C160.087 157.975 160.137 158.117 160.204 158.25C160.27 158.383 160.345 158.5 160.429 158.6C160.529 158.7 160.637 158.75 160.754 158.75V159H157.579V158.75C157.695 158.75 157.804 158.708 157.904 158.625C158.004 158.525 158.087 158.408 158.154 158.275C158.22 158.125 158.27 157.975 158.304 157.825C158.337 157.658 158.354 157.508 158.354 157.375V150.05C158.354 149.933 158.337 149.8 158.304 149.65C158.27 149.5 158.22 149.358 158.154 149.225C158.087 149.092 158.004 148.983 157.904 148.9C157.804 148.8 157.695 148.75 157.579 148.75V148.5H160.754V148.75C160.62 148.75 160.504 148.8 160.404 148.9C160.32 148.983 160.245 149.092 160.179 149.225C160.129 149.358 160.087 149.5 160.054 149.65C160.02 149.8 160.004 149.933 160.004 150.05V156.025L165.954 150.2V150.05C165.954 149.933 165.937 149.8 165.904 149.65C165.87 149.5 165.82 149.358 165.754 149.225C165.687 149.092 165.604 148.983 165.504 148.9C165.404 148.8 165.295 148.75 165.179 148.75V148.5H168.379V148.75C168.245 148.75 168.12 148.8 168.004 148.9C167.904 148.983 167.82 149.092 167.754 149.225C167.704 149.358 167.662 149.5 167.629 149.65C167.595 149.8 167.579 149.933 167.579 150.05V157.375Z" fill="white"/>
<path d="M17.16 104V102.35C19.8 102.35 21.45 101.58 22.11 100.04C22.88 98.39 23.265 96.465 23.265 94.265V15.23C23.265 14.13 22.715 13.58 21.615 13.58C21.175 13.58 20.57 13.745 19.8 14.075L0.98999 20.015V14.075L39.435 0.709991V5.16499C37.675 5.935 36.245 7.145 35.145 8.795C34.155 10.445 33.77 12.37 33.99 14.57V93.605C33.99 95.915 34.375 97.95 35.145 99.71C35.915 101.47 37.675 102.35 40.425 102.35V104H17.16Z" fill="white"/>
<path d="M109.592 73.145C109.592 76.995 108.822 80.9 107.282 84.86C105.852 88.71 103.652 92.175 100.682 95.255C97.7122 98.335 93.9172 100.865 89.2972 102.845C84.7872 104.715 79.5072 105.65 73.4572 105.65C70.4872 105.65 67.5722 105.32 64.7122 104.66C61.8522 104 59.1572 103.34 56.6272 102.68C54.7572 102.13 53.0522 101.69 51.5122 101.36C49.9722 100.92 48.5972 100.7 47.3872 100.7V87.665C50.2472 91.515 53.9872 94.54 58.6072 96.74C63.3372 98.94 68.0672 100.04 72.7972 100.04C77.0872 100.04 80.8272 99.38 84.0172 98.06C87.2072 96.74 89.8472 94.98 91.9372 92.78C94.1372 90.47 95.7322 87.775 96.7222 84.695C97.8222 81.505 98.3722 78.095 98.3722 74.465C98.3722 70.065 97.6022 66.215 96.0622 62.915C94.6322 59.615 92.7072 56.865 90.2872 54.665C87.8672 52.355 85.0622 50.65 81.8722 49.55C78.7922 48.45 75.6572 47.9 72.4672 47.9C68.9472 47.9 65.0972 48.725 60.9172 50.375C56.7372 51.915 52.4472 54.39 48.0472 57.8L69.1672 2.525H110.417L107.117 11.765H72.6322C70.7622 16.715 68.7272 21.83 66.5272 27.11C64.4372 32.39 62.4572 37.56 60.5872 42.62C63.2272 41.41 65.7022 40.585 68.0122 40.145C70.3222 39.705 72.7972 39.485 75.4372 39.485C79.8372 39.485 84.0722 40.255 88.1422 41.795C92.2122 43.335 95.8422 45.535 99.0322 48.395C102.222 51.255 104.752 54.775 106.622 58.955C108.602 63.135 109.592 67.865 109.592 73.145Z" fill="white"/>
</svg>
