<svg width="43" height="43" viewBox="0 0 43 43" fill="none" xmlns="http://www.w3.org/2000/svg">
<path d="M1.17088 21.3153C1.16988 24.8954 2.10956 28.3912 3.89633 31.4724L1 42L11.8222 39.1751C14.8154 40.7973 18.1692 41.6473 21.5772 41.6475H21.5862C32.8369 41.6475 41.9952 32.5336 42 21.3313C42.0022 15.903 39.8806 10.7986 36.026 6.95829C32.1721 3.11833 27.0465 1.00248 21.5854 1C10.3333 1 1.17552 10.1135 1.17088 21.3153Z" fill="url(#paint0_linear_519_88)"/>
<path d="M0.179727 21.3064C0.178551 25.0617 1.16402 28.7276 3.03755 31.959L0 43L11.3498 40.0374C14.4771 41.7348 17.998 42.6298 21.5808 42.6311H21.59C33.3895 42.6311 42.995 33.0715 43 21.3235C43.002 15.63 40.7768 10.2761 36.7348 6.24866C32.6923 2.22168 27.3173 0.00234107 21.59 0C9.78855 0 0.18443 9.55827 0.179727 21.3064ZM6.93879 31.4025L6.515 30.7328C4.73353 27.9128 3.79324 24.654 3.79458 21.3078C3.79845 11.543 11.781 3.59856 21.5968 3.59856C26.3503 3.60057 30.8176 5.44534 34.1776 8.7924C37.5375 12.1398 39.3863 16.5895 39.3851 21.3222C39.3808 31.0869 31.3981 39.0324 21.59 39.0324H21.583C18.3894 39.0307 15.2573 38.1769 12.5258 36.5634L11.8757 36.1796L5.14052 37.9376L6.93879 31.4023V31.4025Z" fill="url(#paint1_linear_519_88)"/>
<path d="M16.5932 11.9756C16.1877 11.0479 15.7609 11.0292 15.3753 11.013C15.0595 10.999 14.6985 11 14.3379 11C13.9769 11 13.3904 11.1398 12.8946 11.6969C12.3984 12.2546 11 13.6022 11 16.343C11 19.084 12.9397 21.7329 13.2101 22.1049C13.4808 22.4763 16.9547 28.2809 22.4564 30.514C27.0289 32.3697 27.9594 32.0006 28.9518 31.9076C29.9443 31.8148 32.1544 30.5603 32.6053 29.2594C33.0565 27.9587 33.0565 26.8437 32.9212 26.6107C32.7859 26.3786 32.4249 26.2392 31.8836 25.9607C31.3422 25.6821 28.681 24.3343 28.1849 24.1484C27.6887 23.9626 27.3278 23.8699 26.9669 24.4277C26.6059 24.9847 25.5693 26.2392 25.2534 26.6107C24.9378 26.9832 24.6218 27.0295 24.0807 26.7509C23.5391 26.4713 21.7958 25.8838 19.7277 23.986C18.1185 22.5094 17.0322 20.6858 16.7164 20.128C16.4006 19.571 16.6826 19.2691 16.954 18.9915C17.1972 18.7419 17.4955 18.341 17.7664 18.0158C18.0363 17.6904 18.1264 17.4583 18.3068 17.0868C18.4875 16.7149 18.3971 16.3895 18.262 16.1109C18.1264 15.8322 17.0745 13.077 16.5932 11.9756Z" fill="white"/>
<defs>
<linearGradient id="paint0_linear_519_88" x1="2051" y1="4101" x2="2051" y2="1" gradientUnits="userSpaceOnUse">
<stop stop-color="#1FAF38"/>
<stop offset="1" stop-color="#60D669"/>
</linearGradient>
<linearGradient id="paint1_linear_519_88" x1="2150" y1="4300" x2="2150" y2="0" gradientUnits="userSpaceOnUse">
<stop stop-color="#F9F9F9"/>
<stop offset="1" stop-color="white"/>
</linearGradient>
</defs>
</svg>
