<svg width="36" height="36" viewBox="0 0 36 36" fill="none" xmlns="http://www.w3.org/2000/svg">
<ellipse cx="17.9532" cy="17.6327" rx="17.9532" ry="17.6327" fill="#F79229"/>
<path d="M12.9999 17.108C14.5259 20.0535 16.9845 22.4682 19.9836 23.9669L22.315 21.6771C22.6117 21.3857 23.025 21.3024 23.3959 21.4169C24.5829 21.802 25.8545 22.0102 27.1792 22.0102C27.4603 22.0102 27.7298 22.1199 27.9286 22.3151C28.1273 22.5102 28.239 22.775 28.239 23.051V26.6939C28.239 26.9699 28.1273 27.2347 27.9286 27.4298C27.7298 27.625 27.4603 27.7347 27.1792 27.7347C22.4012 27.7347 17.8189 25.8705 14.4403 22.5523C11.0617 19.234 9.16364 14.7335 9.16364 10.0408C9.16364 9.76477 9.27529 9.50004 9.47403 9.30485C9.67277 9.10966 9.94232 9 10.2234 9H13.9325C14.2135 9 14.4831 9.10966 14.6818 9.30485C14.8806 9.50004 14.9922 9.76477 14.9922 10.0408C14.9922 11.3418 15.2042 12.5908 15.5963 13.7565C15.7128 14.1208 15.6281 14.5267 15.3313 14.8182L12.9999 17.108Z" fill="#1F2328"/>
</svg>
