<svg width="224" height="193" viewBox="0 0 224 193" fill="none" xmlns="http://www.w3.org/2000/svg">
<path d="M4 1H3.5V0.5H4V1ZM4.35355 192.354C4.15829 192.549 3.84171 192.549 3.64645 192.354L0.464462 189.172C0.269211 188.976 0.269211 188.66 0.464462 188.464C0.659729 188.269 0.976303 188.269 1.17157 188.464L4 191.293L6.82843 188.464C7.0237 188.269 7.34027 188.269 7.53554 188.464C7.73079 188.66 7.73079 188.976 7.53554 189.172L4.35355 192.354ZM224 1.5H4V0.5H224V1.5ZM4.5 1V192H3.5V1H4.5Z" fill="white"/>
</svg>
