<svg width="229" height="117" viewBox="0 0 229 117" fill="none" xmlns="http://www.w3.org/2000/svg">
<path d="M225 0.5H225.5V0H225V0.5ZM224.646 116.354C224.842 116.549 225.158 116.549 225.354 116.354L228.536 113.172C228.731 112.976 228.731 112.66 228.536 112.464C228.34 112.269 228.024 112.269 227.828 112.464L225 115.293L222.172 112.464C221.976 112.269 221.66 112.269 221.464 112.464C221.269 112.66 221.269 112.976 221.464 113.172L224.646 116.354ZM0 1H225V0H0V1ZM224.5 0.5V116H225.5V0.5H224.5Z" fill="white"/>
</svg>
